<svg width="427" height="658" viewBox="0 0 427 658" fill="none" xmlns="http://www.w3.org/2000/svg">
<g clip-path="url(#clip0)">
<path opacity="0.2" d="M2.15726 252.235L8.62827 252.213L33.4453 252.138L38.9572 252.127L55.6743 252.084L59.8053 252.062H61.6382L147.846 251.825L149.216 251.814H150.521L155.762 251.793L170.56 251.76L177.7 251.739L192.519 251.696V37.066L9.70724 20.921L3.23526 20.349L2.15726 252.235Z" fill="black"/>
<path d="M8.6283 252.213V252.235L26.7477 252.181L33.4455 252.159L38.9568 252.149L46.8734 252.127L50.0334 252.116L55.6634 252.106L58.5862 252.095H59.805L61.6061 252.084H61.6385L75.2389 252.052L77.6979 252.041L112.567 251.944L118.833 251.922L144.406 251.847L147.846 251.836H149.227C149.22 251.83 149.217 251.823 149.216 251.814H150.521L155.763 251.793L170.56 251.76V251.771L177.7 251.75L182.607 251.739H183.708L198.99 251.696V37.0664L9.70685 20.349V20.9206L8.6283 252.213Z" fill="#E6E6E6"/>
<path opacity="0.2" d="M104.079 16.5746C99.9094 16.5746 96.5293 13.1945 96.5293 9.02484C96.5293 4.85521 99.9094 1.47507 104.079 1.47507C108.249 1.47507 111.629 4.85521 111.629 9.02484C111.629 13.1945 108.249 16.5746 104.079 16.5746Z" fill="black"/>
<path d="M108.393 16.5746C104.224 16.5746 100.843 13.1945 100.843 9.02484C100.843 4.85521 104.224 1.47507 108.393 1.47507C112.563 1.47507 115.943 4.85521 115.943 9.02484C115.943 13.1945 112.563 16.5746 108.393 16.5746Z" fill="#3F3D56"/>
<path opacity="0.2" d="M45.2914 -6.12193e-06L163.554 9.44879L162.867 18.0497L44.6042 8.6009L45.2914 -6.12193e-06Z" fill="black"/>
<path d="M49.6056 -6.12193e-06L167.868 9.44879L167.181 18.0497L48.9184 8.6009L49.6056 -6.12193e-06Z" fill="#E6E6E6"/>
<path opacity="0.56" d="M38.4914 204.34C44.8332 180.31 48.209 178.455 48.209 178.455L83.9734 160.454L84.2107 160.368L104.315 175.198L112.975 161.867L113.407 161.49C113.407 161.49 113.59 161.565 113.946 161.705C117.052 162.956 133.047 169.568 144.922 177.43L145.288 177.377L159.299 184.344L161.812 193.63L164.713 204.34L174.7 250.739V250.75L167.56 250.771V250.76L152.763 250.793L150.433 239.36L147.521 250.814H146.216C146.217 250.823 146.221 250.83 146.227 250.836H144.846L141.406 250.847L115.833 250.922L109.567 250.944L74.698 251.041L72.239 251.052L58.6386 251.084H58.6062L56.8051 251.095V251.062L55.8776 240.956L55.3167 238.131L52.6743 251.084L52.6635 251.105L47.0335 251.116L43.8734 251.127L35.9568 251.149L30.4456 251.159V251.138C31.9663 240.859 36.1617 213.184 38.4914 204.34Z" fill="#F9A826"/>
<path opacity="0.56" d="M69.5336 133.109L69.5197 133.158C69.5359 133.161 69.5401 133.144 69.5336 133.109C69.6759 132.617 71.4822 126.802 76.6529 129.794C82.0491 132.917 88.4983 113.31 88.4983 113.31C88.4983 113.31 104.742 117.781 114.658 117.096C115.331 117.048 115.991 116.889 116.612 116.626C118.882 121.327 119.643 126.615 118.79 131.766C117.937 136.916 115.512 141.677 111.847 145.395L113.598 161L104.598 175L84.5977 160C84.5977 160 84.3444 163.818 83.5248 150.742C79.6505 149.011 76.273 146.335 73.7026 142.959C71.1322 139.583 69.4512 135.615 68.814 131.42C69.2194 132.343 69.5022 132.942 69.5336 133.109Z" fill="#FFB8B8"/>
<path opacity="0.56" d="M68.814 132.42C66.6047 127.394 60.6825 112.6 71.0818 103.686C79.6855 96.3112 110.035 89.7294 119.735 109.309C120.103 110.056 120.314 110.87 120.355 111.702C120.396 112.533 120.267 113.364 119.974 114.144C119.681 114.923 119.232 115.634 118.654 116.233C118.076 116.832 117.381 117.306 116.612 117.626C116.472 117.337 116.314 117.058 116.163 116.775C115.677 116.946 115.172 117.054 114.658 117.096C104.742 117.781 88.4983 113.31 88.4983 113.31C88.4983 113.31 82.0491 132.917 76.6528 129.794C71.4822 126.802 69.6759 132.617 69.5336 133.109C69.5022 132.942 69.2194 132.343 68.814 131.42C68.6504 130.302 68.5615 129.173 68.5478 128.043C68.5432 128.242 68.5327 128.439 68.5327 128.639C68.5324 129.905 68.6264 131.169 68.814 132.42V132.42Z" fill="#2F2E41"/>
<path d="M260.467 657.227C168.735 657.227 94.3722 645.638 94.3722 631.342C94.3722 617.046 168.735 605.457 260.467 605.457C352.199 605.457 426.562 617.046 426.562 631.342C426.562 645.638 352.199 657.227 260.467 657.227Z" fill="#E6E6E6"/>
<path d="M4.31425 579.033L40.4452 620.859L41.1142 621.635L252.917 589.279V347.686H4.85323L4.31425 579.033Z" fill="#0072A6"/>
<path d="M231.805 438.826L231.967 440.977L188.825 444.212L188.664 442.061L231.805 438.826Z" fill="#E6E6E6"/>
<path d="M126.112 448.533L126.266 450.684L80.9672 453.919L80.8136 451.768L126.112 448.533Z" fill="#E6E6E6"/>
<path d="M40.9193 415.097L253.391 402.154L253.522 404.307L156.384 410.224L154.732 604.452L152.575 604.433L154.225 410.356L41.0503 417.25L40.9193 415.097Z" fill="#E6E6E6"/>
<path opacity="0.2" d="M4.31427 579.033L40.4453 620.859V347.686H4.85324L4.31427 579.033Z" fill="black"/>
<path d="M238.357 352.54H257.771V339.597L206.001 329.89L202.765 323.419L-6.10352e-05 328.812V347.147L40.4452 361.911L66.8694 361.168C66.8694 361.168 106.775 394.603 154.231 391.367C201.687 388.131 238.357 352.54 238.357 352.54Z" fill="#E6E6E6"/>
<path d="M62.016 340.136L73.3407 348.225L105.06 347.46C105.06 347.47 105.071 347.46 105.071 347.46H105.125L107.541 347.406H107.552L109.558 347.352L115.889 347.201L116.418 347.19L122.015 347.061L122.22 347.05L129.177 346.888L129.63 346.877L134.774 346.748L135.605 346.737L141.645 346.586L143.586 346.543L154.447 346.284L157.186 346.219L186.048 345.529C186.048 345.529 206.616 346.554 207.586 340.579C207.608 340.432 207.619 340.284 207.619 340.136C207.619 336.739 204.038 336.016 200.651 336.103C198.639 336.177 196.638 336.444 194.676 336.901L186.393 337.106L181.227 337.224L165.017 337.623L151.157 337.958L146.25 338.087L139.229 338.26L136.446 338.324L126.114 338.572L121.282 338.691L111.079 338.939L62.016 340.136Z" fill="#CCCCCC"/>
<path d="M122.414 345.529C121.223 345.529 120.257 344.563 120.257 343.372C120.257 342.181 121.223 341.215 122.414 341.215C123.606 341.215 124.571 342.181 124.571 343.372C124.571 344.563 123.606 345.529 122.414 345.529Z" fill="#3F3D56"/>
<path d="M121.336 337.979C110.018 337.979 100.843 337.014 100.843 335.822C100.843 334.631 110.018 333.665 121.336 333.665C132.653 333.665 141.828 334.631 141.828 335.822C141.828 337.014 132.653 337.979 121.336 337.979Z" fill="#CCCCCC"/>
<path d="M134.161 308.407L116.279 312.766L118.322 321.149L143.977 314.896L143.828 314.285C143.325 312.224 142.025 310.447 140.212 309.344C138.399 308.242 136.222 307.905 134.161 308.407Z" fill="#3F3D56"/>
<path d="M140.914 315.172L131.315 316.614L131.362 316.925C131.519 317.974 132.087 318.918 132.941 319.548C133.794 320.178 134.863 320.444 135.912 320.286L137.6 320.033C138.649 319.875 139.592 319.307 140.223 318.454C140.853 317.601 141.119 316.532 140.961 315.483L140.914 315.172L140.914 315.172Z" fill="#3F3D56"/>
<path opacity="0.2" d="M118.322 318.992L131.733 315.723C132.135 316.541 132.786 317.211 133.593 317.635C134.4 318.059 135.321 318.216 136.222 318.082L137.289 317.922C138.338 317.763 139.291 317.22 139.965 316.4C140.638 315.58 140.984 314.54 140.937 313.48L143.221 312.923C143.553 313.547 143.806 314.21 143.977 314.896L140.937 315.637C140.984 316.697 140.638 317.737 139.965 318.557C139.291 319.377 138.338 319.92 137.289 320.079L136.222 320.24C135.321 320.373 134.4 320.216 133.593 319.792C132.786 319.368 132.135 318.698 131.733 317.88L118.322 321.149L116.279 312.766L116.775 312.645L118.322 318.992Z" fill="black"/>
<path d="M120.584 336.901C121.653 336.901 122.711 336.683 123.693 336.261C124.676 335.839 125.562 335.221 126.298 334.446C127.033 333.67 127.604 332.753 127.974 331.749C128.344 330.746 128.505 329.678 128.449 328.61L127.268 306.162L112.707 305.623V329.024C112.707 330.059 112.911 331.083 113.307 332.039C113.703 332.994 114.283 333.862 115.014 334.594C115.746 335.325 116.614 335.905 117.569 336.301C118.525 336.697 119.549 336.901 120.584 336.901Z" fill="#3F3D56"/>
<path d="M113.786 306.162H126.899C124.625 302.713 126.043 299.178 129.226 295.603C129.409 295.396 129.528 295.14 129.569 294.867C129.61 294.594 129.571 294.315 129.457 294.064C129.344 293.812 129.16 293.599 128.928 293.449C128.696 293.299 128.425 293.22 128.149 293.22H123.152C117.979 293.22 113.786 298.049 113.786 304.005V306.162Z" fill="#3F3D56"/>
<path opacity="0.2" d="M124.912 295.603C125.094 295.396 125.213 295.14 125.254 294.867C125.295 294.594 125.257 294.315 125.143 294.064C125.029 293.812 124.846 293.599 124.614 293.449C124.382 293.299 124.111 293.22 123.835 293.22H128.149C128.425 293.22 128.696 293.299 128.928 293.449C129.16 293.599 129.344 293.812 129.457 294.064C129.571 294.315 129.61 294.594 129.569 294.867C129.528 295.14 129.409 295.396 129.226 295.603C126.043 299.178 124.625 302.713 126.899 306.162H122.584C120.311 302.713 121.729 299.178 124.912 295.603Z" fill="black"/>
<path d="M187.141 318.876L170.554 324.738C170.554 324.738 131.099 327.886 136.218 337.922C141.337 347.958 175.106 341.474 175.106 341.474L191.099 330.37L187.141 318.876Z" fill="#FFB8B8"/>
<path d="M162.32 333.665C163.424 333.667 164.485 334.093 165.284 334.854C166.083 335.616 166.558 336.656 166.612 337.759C166.853 337.537 167.127 337.353 167.423 337.214C166.609 336.66 166.008 335.844 165.72 334.902C165.432 333.96 165.474 332.948 165.839 332.033C166.204 331.118 166.871 330.355 167.728 329.87C168.586 329.385 169.584 329.208 170.556 329.367C171.528 329.526 172.417 330.012 173.076 330.745C173.734 331.478 174.123 332.413 174.177 333.397C174.232 334.381 173.949 335.353 173.376 336.155C172.803 336.956 171.973 337.537 171.024 337.803C171.393 338.155 171.673 338.589 171.842 339.07C172.011 339.55 172.063 340.064 171.996 340.569C171.928 341.074 171.742 341.556 171.453 341.975C171.164 342.394 170.78 342.739 170.332 342.982C169.884 343.225 169.385 343.358 168.876 343.371C168.366 343.384 167.861 343.277 167.402 343.057C166.942 342.838 166.54 342.513 166.23 342.109C165.92 341.705 165.709 341.233 165.616 340.733C165.151 341.289 164.554 341.719 163.878 341.982C163.203 342.246 162.473 342.335 161.754 342.241C161.036 342.147 160.352 341.873 159.768 341.445C159.183 341.017 158.716 340.448 158.41 339.791C158.103 339.134 157.968 338.411 158.015 337.688C158.063 336.964 158.293 336.265 158.683 335.654C159.073 335.043 159.61 334.541 160.246 334.193C160.882 333.845 161.595 333.664 162.32 333.665V333.665Z" fill="white"/>
<path d="M154.77 335.822C155.874 335.824 156.935 336.25 157.734 337.012C158.533 337.773 159.008 338.813 159.062 339.916C159.303 339.694 159.577 339.51 159.874 339.371C159.059 338.817 158.458 338.001 158.17 337.059C157.882 336.117 157.924 335.105 158.289 334.19C158.654 333.275 159.321 332.512 160.179 332.027C161.036 331.542 162.034 331.365 163.006 331.524C163.979 331.683 164.867 332.169 165.526 332.902C166.184 333.635 166.573 334.57 166.628 335.554C166.682 336.538 166.4 337.511 165.826 338.312C165.253 339.113 164.423 339.695 163.475 339.96C163.843 340.312 164.123 340.746 164.292 341.227C164.461 341.707 164.514 342.221 164.446 342.726C164.379 343.231 164.193 343.713 163.903 344.132C163.614 344.551 163.23 344.896 162.782 345.139C162.334 345.382 161.835 345.515 161.326 345.528C160.817 345.541 160.312 345.434 159.852 345.214C159.392 344.995 158.991 344.67 158.68 344.266C158.37 343.862 158.16 343.391 158.066 342.89C157.601 343.446 157.004 343.876 156.329 344.139C155.654 344.403 154.923 344.492 154.204 344.398C153.486 344.304 152.802 344.03 152.218 343.602C151.633 343.174 151.166 342.605 150.86 341.948C150.554 341.291 150.418 340.568 150.466 339.845C150.513 339.121 150.743 338.422 151.133 337.811C151.523 337.2 152.061 336.698 152.696 336.35C153.332 336.002 154.046 335.821 154.77 335.822V335.822Z" fill="white"/>
<path d="M175.068 318.404L190.082 343.199L221.651 322.006L257.911 297.674L279.773 240.274L302.002 199.57L274.143 191.363C274.143 191.363 264.555 191.729 252.162 214.476C239.781 237.233 228.747 276.621 228.747 276.621L213.939 288.151L175.068 318.404Z" fill="#F9A826"/>
<path opacity="0.2" d="M175.068 318.404L190.082 343.199L221.651 322.006L257.911 297.674L279.773 240.274L302.002 199.57L274.143 191.363C274.143 191.363 264.555 191.729 252.162 214.476C239.781 237.233 228.747 276.621 228.747 276.621L213.939 288.151L175.068 318.404Z" fill="black"/>
<path d="M105.125 347.46L143.586 346.543L146.638 343.081L148.795 340.632L151.157 337.958L153.778 334.992L149.313 328.068L147.188 324.767L138.581 330.419L132.477 334.42C132.477 334.42 127.365 336.124 121.282 338.691C115.63 341.086 109.127 344.235 105.125 347.46Z" fill="#FFB8B8"/>
<path d="M253.983 149.85C239.418 149.85 227.611 138.043 227.611 123.477C227.611 108.912 239.418 97.1047 253.983 97.1047C268.549 97.1047 280.356 108.912 280.356 123.477C280.356 138.043 268.549 149.85 253.983 149.85Z" fill="#FFB8B8"/>
<path d="M274.422 130.73L277.06 168.97L244.094 172.926C244.094 172.926 244.094 141.279 241.456 137.323C238.819 133.367 274.422 130.73 274.422 130.73Z" fill="#FFB8B8"/>
<path d="M201.238 180.179L243.939 162.096C243.939 162.096 264.337 146.356 276.302 157.993L281.675 165.674C281.675 165.674 314.394 183.264 314.394 197.769L310.685 271.164C310.685 271.164 321.234 312.042 305.41 314.679L219.699 322.591C219.699 322.591 207.831 308.086 218.38 289.625L214.424 246.11L201.238 180.179Z" fill="#F9A826"/>
<path d="M230.248 181.497L201.238 180.179C201.238 180.179 199.112 182.422 192.519 207.476C185.926 232.53 177.503 273.801 177.503 273.801L135.357 327.194L155.849 347.686L210.854 287.288L218.38 226.331L230.248 181.497Z" fill="#F9A826"/>
<path d="M215.743 319.954L310.549 311.612C310.549 311.612 319.915 371.38 318.596 395.116C317.278 418.851 315.959 455.773 315.959 455.773L326.508 616.646L285.631 611.371L280.356 478.189L263.214 405.665L243.434 497.969L230.248 616.646L194.645 612.69L206.513 468.959C206.513 468.959 195.964 339.733 215.743 319.954Z" fill="#2F2E41"/>
<path d="M202.557 606.097L190.689 610.053C190.689 610.053 165.635 603.459 172.228 620.602C178.821 637.744 197.282 635.107 197.282 635.107C197.282 635.107 219.699 652.249 228.929 639.063L223.655 611.371L202.557 606.097Z" fill="#2F2E41"/>
<path d="M298.817 606.097L286.949 610.053C286.949 610.053 261.895 603.459 268.488 620.602C275.082 637.744 293.542 635.107 293.542 635.107C293.542 635.107 315.959 652.249 325.19 639.063L319.915 611.371L298.817 606.097Z" fill="#2F2E41"/>
<path d="M274.422 146.553C274.422 146.553 302.114 126.774 287.609 103.039C277.546 86.5723 256.694 87.8757 244.866 90.2185C241.68 90.8066 238.684 92.1609 236.137 94.1646C233.591 96.1683 231.57 98.7612 230.248 101.72C228.27 106.335 228.27 110.95 236.182 110.95C252.006 110.95 244.094 122.818 244.094 122.818C244.094 122.818 254.643 125.455 252.006 134.686C249.368 143.916 274.422 146.553 274.422 146.553Z" fill="#2F2E41"/>
<path d="M106.236 347.686C104.449 347.686 103 346.238 103 344.451C103 342.664 104.449 341.215 106.236 341.215C108.023 341.215 109.472 342.664 109.472 344.451C109.472 346.238 108.023 347.686 106.236 347.686Z" fill="white"/>
<path d="M109.472 342.293C109.47 341.65 109.614 341.014 109.892 340.433C110.17 339.852 110.576 339.342 111.079 338.939C111.846 338.321 112.801 337.982 113.786 337.979C113.84 337.979 113.883 337.99 113.937 337.99C114.154 337.126 114.635 336.351 115.313 335.772C115.991 335.194 116.832 334.84 117.719 334.761C118.607 334.681 119.497 334.88 120.267 335.329C121.037 335.778 121.648 336.456 122.015 337.267C122.699 336.908 123.489 336.809 124.241 336.987C124.992 337.166 125.654 337.61 126.103 338.238C129.278 337.833 132.389 337.021 135.357 335.822C136.166 335.821 136.96 336.05 137.645 336.481C138.33 336.913 138.879 337.529 139.229 338.26C139.523 338.841 139.674 339.485 139.671 340.136C139.667 340.913 139.451 341.674 139.045 342.337C139.816 342.445 140.521 342.827 141.033 343.413C141.544 344 141.826 344.751 141.828 345.529C141.828 345.889 141.766 346.247 141.645 346.586L135.605 346.737C135.521 346.54 135.46 346.333 135.421 346.122C135.227 346.352 135.011 346.562 134.774 346.748L129.63 346.877L129.338 346.651C129.291 346.734 129.237 346.813 129.177 346.888L122.22 347.05C122.177 347.002 122.138 346.952 122.101 346.899C122.077 346.955 122.048 347.009 122.015 347.061L116.418 347.19C116.193 346.821 116.046 346.41 115.986 345.982C115.956 346.004 115.924 346.022 115.889 346.036C115.923 346.225 115.941 346.416 115.943 346.608C115.942 346.806 115.923 347.005 115.889 347.201L109.558 347.352C109.502 347.108 109.473 346.858 109.472 346.608C109.476 345.888 109.719 345.19 110.162 344.623C109.712 343.929 109.472 343.12 109.472 342.293V342.293ZM121.023 342.207C121.208 342.432 121.422 342.632 121.659 342.8C121.594 342.962 121.562 343.135 121.508 343.297C121.236 343.006 120.91 342.772 120.548 342.606C120.716 342.485 120.875 342.352 121.023 342.207V342.207Z" fill="white"/>
<path d="M77.1156 348.765C75.3286 348.765 73.8799 347.316 73.8799 345.529C73.8799 343.742 75.3286 342.293 77.1156 342.293C78.9026 342.293 80.3512 343.742 80.3512 345.529C80.3512 347.316 78.9026 348.765 77.1156 348.765Z" fill="white"/>
<path d="M80.3511 343.372C80.3497 342.728 80.4934 342.092 80.7717 341.511C81.0499 340.931 81.4554 340.42 81.9581 340.018C82.7251 339.399 83.68 339.061 84.6653 339.058C84.7192 339.058 84.7624 339.069 84.8163 339.069C85.0339 338.205 85.5149 337.429 86.1926 336.851C86.8704 336.272 87.7112 335.919 88.5988 335.839C89.4864 335.76 90.3767 335.959 91.1464 336.408C91.916 336.857 92.527 337.534 92.8945 338.346C93.5782 337.987 94.3688 337.887 95.1201 338.066C95.8715 338.244 96.5329 338.689 96.9822 339.317C100.158 338.912 103.268 338.1 106.236 336.901C107.046 336.9 107.839 337.128 108.524 337.56C109.21 337.991 109.759 338.608 110.108 339.338C110.402 339.92 110.554 340.563 110.55 341.215C110.547 341.992 110.33 342.753 109.925 343.415C110.695 343.523 111.401 343.905 111.912 344.492C112.423 345.078 112.706 345.83 112.707 346.608C112.708 346.968 112.646 347.326 112.524 347.665L106.484 347.816C106.4 347.618 106.339 347.412 106.301 347.201C106.107 347.431 105.89 347.64 105.654 347.826L100.509 347.956L100.218 347.729C100.17 347.812 100.116 347.892 100.056 347.967L93.0994 348.128C93.0566 348.081 93.017 348.03 92.9808 347.977C92.9563 348.033 92.9274 348.088 92.8945 348.139L87.2969 348.269C87.0726 347.899 86.9258 347.488 86.8655 347.061C86.8356 347.083 86.803 347.101 86.7685 347.114C86.8025 347.303 86.8205 347.494 86.8224 347.686C86.821 347.885 86.803 348.083 86.7685 348.279L80.4374 348.43C80.3809 348.186 80.352 347.937 80.3512 347.686C80.3555 346.966 80.5982 346.269 81.0414 345.702C80.5913 345.008 80.3516 344.199 80.3511 343.372V343.372ZM91.9023 343.286C92.0873 343.511 92.3013 343.71 92.5386 343.879C92.4739 344.041 92.4416 344.213 92.3876 344.375C92.1153 344.085 91.7893 343.851 91.4277 343.685C91.5955 343.564 91.7541 343.43 91.9023 343.286H91.9023Z" fill="white"/>
<path d="M123.762 346.608C122.422 346.608 121.336 345.521 121.336 344.181C121.336 342.841 122.422 341.754 123.762 341.754C125.103 341.754 126.189 342.841 126.189 344.181C126.189 345.521 125.103 346.608 123.762 346.608Z" fill="white"/>
<path d="M126.189 342.563C126.188 342.08 126.296 341.603 126.505 341.168C126.713 340.732 127.017 340.349 127.394 340.047C127.97 339.584 128.686 339.33 129.425 339.327C129.465 339.327 129.498 339.336 129.538 339.336C129.701 338.687 130.062 338.106 130.57 337.672C131.079 337.238 131.709 336.973 132.375 336.914C133.041 336.854 133.708 337.003 134.286 337.34C134.863 337.677 135.321 338.185 135.597 338.794C136.109 338.524 136.702 338.45 137.266 338.583C137.829 338.717 138.325 339.05 138.662 339.522C141.044 339.218 143.377 338.609 145.603 337.71C146.21 337.709 146.805 337.88 147.319 338.204C147.833 338.527 148.245 338.99 148.507 339.538C148.727 339.974 148.841 340.456 148.838 340.945C148.836 341.528 148.673 342.099 148.369 342.595C148.947 342.676 149.476 342.963 149.86 343.403C150.243 343.843 150.455 344.406 150.456 344.99C150.457 345.26 150.41 345.528 150.319 345.782L145.789 345.896C145.726 345.748 145.68 345.593 145.651 345.435C145.506 345.607 145.343 345.764 145.166 345.904L141.308 346.001L141.089 345.831C141.053 345.893 141.013 345.953 140.968 346.009L135.75 346.13C135.718 346.095 135.688 346.057 135.661 346.017C135.643 346.059 135.621 346.1 135.597 346.138L131.398 346.236C131.23 345.959 131.12 345.65 131.075 345.329C131.052 345.346 131.028 345.36 131.002 345.37C131.028 345.511 131.041 345.655 131.043 345.799C131.041 345.948 131.028 346.097 131.002 346.244L126.254 346.357C126.211 346.174 126.19 345.987 126.189 345.799C126.192 345.259 126.374 344.735 126.707 344.31C126.369 343.79 126.189 343.183 126.189 342.563V342.563ZM134.852 342.498C134.991 342.667 135.152 342.817 135.33 342.943C135.281 343.065 135.257 343.194 135.216 343.315C135.012 343.098 134.768 342.922 134.497 342.798C134.622 342.707 134.741 342.607 134.852 342.498V342.498Z" fill="white"/>
<path d="M158.276 346.608C156.935 346.608 155.849 345.521 155.849 344.181C155.849 342.841 156.935 341.754 158.276 341.754C159.616 341.754 160.702 342.841 160.702 344.181C160.702 345.521 159.616 346.608 158.276 346.608Z" fill="white"/>
<path d="M160.702 342.563C160.701 342.08 160.809 341.603 161.018 341.168C161.226 340.732 161.531 340.349 161.908 340.047C162.483 339.584 163.199 339.33 163.938 339.327C163.978 339.327 164.011 339.336 164.051 339.336C164.214 338.687 164.575 338.106 165.083 337.672C165.592 337.238 166.222 336.973 166.888 336.914C167.554 336.854 168.222 337.003 168.799 337.34C169.376 337.677 169.834 338.185 170.11 338.794C170.623 338.524 171.216 338.45 171.779 338.583C172.343 338.717 172.839 339.05 173.176 339.522C175.557 339.218 177.89 338.609 180.116 337.71C180.723 337.709 181.318 337.88 181.832 338.204C182.346 338.527 182.758 338.99 183.02 339.538C183.241 339.974 183.354 340.456 183.352 340.945C183.349 341.528 183.187 342.099 182.883 342.595C183.46 342.676 183.99 342.963 184.373 343.403C184.756 343.843 184.968 344.406 184.969 344.99C184.97 345.26 184.923 345.528 184.832 345.782L180.302 345.896C180.239 345.748 180.193 345.593 180.165 345.435C180.019 345.607 179.857 345.764 179.679 345.904L175.821 346.001L175.602 345.831C175.567 345.893 175.526 345.953 175.481 346.009L170.264 346.13C170.231 346.095 170.202 346.057 170.175 346.017C170.156 346.059 170.135 346.1 170.11 346.138L165.912 346.236C165.743 345.959 165.633 345.65 165.588 345.329C165.566 345.346 165.541 345.36 165.515 345.37C165.541 345.511 165.554 345.655 165.556 345.799C165.555 345.948 165.541 346.097 165.515 346.244L160.767 346.357C160.725 346.174 160.703 345.987 160.702 345.799C160.706 345.259 160.888 344.735 161.22 344.31C160.882 343.79 160.703 343.183 160.702 342.563V342.563ZM169.366 342.498C169.504 342.667 169.665 342.817 169.843 342.943C169.794 343.065 169.77 343.194 169.73 343.315C169.525 343.098 169.281 342.922 169.01 342.798C169.136 342.707 169.255 342.607 169.366 342.498V342.498Z" fill="white"/>
<path d="M45.029 311.49V305.019H50.4217V306.097C51.0174 306.097 51.5002 306.822 51.5002 307.715C51.5002 308.609 51.0174 309.333 50.4217 309.333V311.49H54.7358V333.061H40.7148V311.49H45.029Z" fill="#3F3D56"/>
</g>
<defs>
<clipPath id="clip0">
<rect width="426.562" height="657.227" fill="white" transform="matrix(-1 0 0 1 426.562 0)"/>
</clipPath>
</defs>
</svg>
